# xmcd CD database file
#
# Track frame offsets:
#	150
#	42450
#	69429
#	91717
#	111437
#	130516
#	147336
#
# Disc length: 2203 seconds
#
# Revision: 1
# Processed by: cddbd v1.5.2PL0 Copyright (c) Steve Scherf et al.
# Submitted via: CDex 1.51
#
DISCID=5c089907
DTITLE=James Brown - Bodyheat [2007 Remaster]
DYEAR=1976
DGENRE=Soul
TTITLE0=Bodyheat
TTITLE1=Woman
TTITLE2=Kiss In 77
TTITLE3=I'm Satisfied
TTITLE4=What The World Needs Now Is Love
TTITLE5=Wake Up And Give Yourself A Chance To Live
TTITLE6=Don't Tell It
EXTD=YEAR: 1976
EXTT0=
EXTT1=
EXTT2=
EXTT3=
EXTT4=
EXTT5=
EXTT6=
PLAYORDER=
